<svg xmlns="http://www.w3.org/2000/svg" viewBox="0 0 96 96"><g id="icon"><path d="M27.11,43.73h-20a4.88,4.88,0,0,1-4.87-4.87V23.59a4.87,4.87,0,0,1,4.87-4.86h6a.75.75,0,1,1,0,1.5h-6a3.37,3.37,0,0,0-3.37,3.36V38.86a3.37,3.37,0,0,0,3.37,3.37h20a.75.75,0,1,1,0,1.5Z"/><path d="M88.88,43.73H84.29a.75.75,0,0,1,0-1.5h4.59a3.37,3.37,0,0,0,3.37-3.37V23.59a3.37,3.37,0,0,0-3.37-3.36H84.29a.75.75,0,0,1,0-1.5h4.59a4.87,4.87,0,0,1,4.87,4.86V38.86A4.88,4.88,0,0,1,88.88,43.73Z"/><path d="M67.11,87a1.73,1.73,0,0,1-1-.31l-4.58-3.13a.26.26,0,0,0-.29,0l-4.58,3.13a1.75,1.75,0,0,1-2,0l-4.57-3.13a.26.26,0,0,0-.29,0l-4.58,3.13a1.76,1.76,0,0,1-2,0l-4.58-3.13a.26.26,0,0,0-.29,0l-4.57,3.13a1.76,1.76,0,0,1-2,0l-4.7-3.22A1.76,1.76,0,0,1,26.36,82V16.78a6.23,6.23,0,0,0-6.22-6.22.75.75,0,0,1,0-1.5H77.32A7.73,7.73,0,0,1,85,16.78V82a1.76,1.76,0,0,1-.77,1.45l-4.72,3.22a1.75,1.75,0,0,1-2,0L73,83.51a.26.26,0,0,0-.29,0l-4.58,3.13A1.76,1.76,0,0,1,67.11,87Zm5.72-5a1.71,1.71,0,0,1,1,.31l4.6,3.13a.24.24,0,0,0,.28,0l4.72-3.22h0a.25.25,0,0,0,.12-.21V16.78a6.23,6.23,0,0,0-6.22-6.22H24.71a7.7,7.7,0,0,1,3.15,6.22V82a.27.27,0,0,0,.12.21l4.7,3.22a.26.26,0,0,0,.29,0l4.58-3.13a1.75,1.75,0,0,1,2,0l4.58,3.13a.26.26,0,0,0,.29,0L49,82.27a1.75,1.75,0,0,1,2,0l4.58,3.13a.26.26,0,0,0,.29,0l4.57-3.13a1.76,1.76,0,0,1,2,0L67,85.4a.26.26,0,0,0,.29,0l4.58-3.13A1.73,1.73,0,0,1,72.83,82Z"/><path d="M27.11,32.94h-14a.76.76,0,0,1-.75-.75V16.78a7.73,7.73,0,0,1,15.46,0V32.19A.76.76,0,0,1,27.11,32.94ZM13.9,31.44H26.36V16.78a6.23,6.23,0,1,0-12.46,0Z"/><path d="M73.82,33.8H38.57a.75.75,0,0,1-.75-.75V21.23a.75.75,0,0,1,.75-.75H73.82a.75.75,0,0,1,.75.75V33.05A.75.75,0,0,1,73.82,33.8Zm-34.5-1.5H73.07V22H39.32Z"/><path d="M27.11,32.94H9.54a.75.75,0,0,1,0-1.5H27.11a.75.75,0,0,1,0,1.5Z"/><path d="M53.48,45H37.11a.75.75,0,0,1,0-1.5H53.48a.75.75,0,0,1,0,1.5Z"/><path d="M60.22,53.33H37.11a.75.75,0,0,1,0-1.5H60.22a.75.75,0,0,1,0,1.5Z"/><path d="M77.73,45H72.05a.75.75,0,0,1,0-1.5h5.68a.75.75,0,0,1,0,1.5Z"/><path d="M77.73,53.33H72.05a.75.75,0,0,1,0-1.5h5.68a.75.75,0,0,1,0,1.5Z"/><path d="M77.73,61.69H72.05a.75.75,0,0,1,0-1.5h5.68a.75.75,0,1,1,0,1.5Z"/><path d="M77.73,70.05H72.05a.75.75,0,0,1,0-1.5h5.68a.75.75,0,0,1,0,1.5Z"/><path d="M61.64,70.05h-12a.75.75,0,0,1,0-1.5h12a.75.75,0,0,1,0,1.5Z"/><path d="M62.56,61.69H49.88a.75.75,0,1,1,0-1.5H62.56a.75.75,0,0,1,0,1.5Z"/><path d="M38.76,73.39a4.27,4.27,0,0,1-4.34-3.3.75.75,0,0,1,.62-.86.76.76,0,0,1,.86.62,2.77,2.77,0,0,0,2.86,2,3,3,0,0,0,2.74-1.6,2.22,2.22,0,0,0-.88-2.67,5,5,0,0,0-1.89-.46A8,8,0,0,1,37,66.84a3.79,3.79,0,0,1-2.64-3.53,4.15,4.15,0,0,1,4.38-3.86,4.3,4.3,0,0,1,4.29,3.06.74.74,0,0,1-.55.9.75.75,0,0,1-.91-.55A2.79,2.79,0,0,0,38.76,61a2.66,2.66,0,0,0-2.88,2.36,2.29,2.29,0,0,0,1.6,2.11,7.74,7.74,0,0,0,1.43.25,6.3,6.3,0,0,1,2.45.65,3.71,3.71,0,0,1,1.52,4.54A4.4,4.4,0,0,1,38.76,73.39Z"/><path d="M38.76,61A.75.75,0,0,1,38,60.2V58.48a.75.75,0,0,1,1.5,0V60.2A.74.74,0,0,1,38.76,61Z"/><path d="M38.76,75.12a.76.76,0,0,1-.75-.75V72.64a.75.75,0,0,1,1.5,0v1.73A.75.75,0,0,1,38.76,75.12Z"/></g></svg>